<svg width="32" height="32" viewBox="0 0 32 32" fill="none" xmlns="http://www.w3.org/2000/svg">
<path d="M8.00006 14.857C7.99506 14.857 7.99006 14.857 7.98406 14.857C7.35306 14.857 6.84106 15.368 6.84106 16C6.84106 16.632 7.35206 17.143 7.98406 17.143C7.99006 17.143 7.99506 17.143 8.00106 17.143H23.9991C24.0041 17.143 24.0091 17.143 24.0151 17.143C24.6461 17.143 25.1581 16.632 25.1581 16C25.1581 15.368 24.6471 14.857 24.0151 14.857C24.0091 14.857 24.0041 14.857 23.9981 14.857H8.00006Z" fill="#005B58"/>
<path d="M17.1429 8C17.1429 7.995 17.1429 7.99 17.1429 7.984C17.1429 7.353 16.6319 6.841 15.9999 6.841C15.3679 6.841 14.8569 7.352 14.8569 7.984C14.8569 7.99 14.8569 7.995 14.8569 8.001V8V23.999C14.8569 24.004 14.8569 24.009 14.8569 24.015C14.8569 24.646 15.3679 25.158 15.9999 25.158C16.6319 25.158 17.1429 24.647 17.1429 24.015C17.1429 24.009 17.1429 24.004 17.1429 23.998V23.999V8Z" fill="#005B58"/>
<path d="M16 0C7.17698 0 0.000976562 7.177 0.000976562 15.999C0.000976562 24.821 7.17798 31.998 16 31.998C24.823 31.998 31.999 24.821 31.999 15.999C31.999 7.177 24.822 0 16 0ZM16 2.286C23.588 2.286 29.714 8.413 29.714 16C29.714 23.587 23.588 29.714 16 29.714C8.41198 29.714 2.28598 23.588 2.28598 16C2.28598 8.412 8.41198 2.286 16 2.286Z" fill="#005B58"/>
</svg>
