<svg width="19" height="18" viewBox="0 0 19 18" fill="none" xmlns="http://www.w3.org/2000/svg">
<path d="M9.55344 11.8872C9.77229 11.8751 9.97996 11.7916 10.1413 11.651L14.7013 7.69097C14.797 7.61216 14.8751 7.51599 14.931 7.40813C14.9869 7.30026 15.0194 7.18288 15.0267 7.06292C15.0339 6.94296 15.0157 6.82283 14.9732 6.70963C14.9307 6.59643 14.8646 6.49244 14.779 6.4038C14.6934 6.31517 14.5899 6.24367 14.4746 6.19353C14.3593 6.14339 14.2346 6.11562 14.1079 6.11186C13.9811 6.1081 13.8548 6.12843 13.7364 6.17164C13.6181 6.21485 13.5101 6.28008 13.4188 6.36347L9.50002 9.76661L5.58127 6.36347C5.48995 6.28008 5.38193 6.21485 5.26358 6.17164C5.14523 6.12843 5.01894 6.1081 4.89217 6.11186C4.7654 6.11562 4.6407 6.14339 4.52544 6.19353C4.41017 6.24367 4.30667 6.31517 4.22103 6.4038C4.1354 6.49244 4.06936 6.59643 4.02683 6.70963C3.98429 6.82283 3.96611 6.94296 3.97335 7.06292C3.9806 7.18288 4.01312 7.30026 4.06901 7.40813C4.1249 7.51599 4.20302 7.61216 4.29877 7.69097L8.85877 11.651C8.95207 11.7323 9.06159 11.795 9.1809 11.8356C9.30021 11.8762 9.42687 11.8937 9.55344 11.8872Z" fill="#021A19"/>
</svg>
