<svg width="54" height="47" viewBox="0 0 54 47" fill="none" xmlns="http://www.w3.org/2000/svg">
<path d="M1.656 29V9.56H4.32V29H1.656ZM7.46513 29V9.56H9.31313L14.8331 22.472V9.56H17.0891V29H15.3611L9.76913 15.728V29H7.46513ZM25.1128 29.216C23.8008 29.216 22.7528 28.96 21.9688 28.448C21.1848 27.936 20.6248 27.208 20.2888 26.264C19.9528 25.304 19.7848 24.184 19.7848 22.904V15.536C19.7848 14.256 19.9528 13.16 20.2888 12.248C20.6408 11.32 21.2008 10.616 21.9688 10.136C22.7528 9.64 23.8008 9.392 25.1128 9.392C26.4248 9.392 27.4648 9.64 28.2328 10.136C29.0008 10.632 29.5528 11.336 29.8888 12.248C30.2408 13.16 30.4168 14.256 30.4168 15.536V22.928C30.4168 24.192 30.2408 25.296 29.8888 26.24C29.5528 27.184 29.0008 27.92 28.2328 28.448C27.4648 28.96 26.4248 29.216 25.1128 29.216ZM25.1128 27.08C25.8328 27.08 26.3768 26.936 26.7448 26.648C27.1128 26.344 27.3608 25.928 27.4888 25.4C27.6168 24.856 27.6808 24.224 27.6808 23.504V14.984C27.6808 14.264 27.6168 13.648 27.4888 13.136C27.3608 12.608 27.1128 12.208 26.7448 11.936C26.3768 11.648 25.8328 11.504 25.1128 11.504C24.3928 11.504 23.8408 11.648 23.4568 11.936C23.0888 12.208 22.8408 12.608 22.7128 13.136C22.5848 13.648 22.5208 14.264 22.5208 14.984V23.504C22.5208 24.224 22.5848 24.856 22.7128 25.4C22.8408 25.928 23.0888 26.344 23.4568 26.648C23.8408 26.936 24.3928 27.08 25.1128 27.08ZM36.4663 29L32.1223 9.56H34.6663L37.7383 23.888L40.6663 9.56H43.1383L38.8423 29H36.4663ZM45.1995 29V9.56H52.7355V11.576H47.9115V18.008H51.8235V19.928H47.9115V27.056H52.7835V29H45.1995Z" fill="black"/>
<path d="M8.106 40.296C7.914 40.296 7.818 40.134 7.818 39.81C7.818 38.982 8.358 37.428 9.438 35.148C8.442 34.944 7.944 34.662 7.944 34.302C7.944 34.062 8.094 33.864 8.394 33.708C8.658 33.576 8.916 33.51 9.168 33.51C9.3 33.51 9.366 33.552 9.366 33.636C9.366 33.684 9.324 33.726 9.24 33.762C9.168 33.798 9.066 33.828 8.934 33.852C8.814 33.876 8.706 33.918 8.61 33.978C8.526 34.026 8.484 34.092 8.484 34.176C8.484 34.38 8.856 34.584 9.6 34.788C9.828 34.308 10.05 33.852 10.266 33.42C10.494 32.988 10.722 32.574 10.95 32.178C10.962 32.154 11.028 32.034 11.148 31.818C11.28 31.602 11.418 31.392 11.562 31.188C11.742 30.936 12.048 30.81 12.48 30.81C12.648 30.81 12.732 30.852 12.732 30.936C12.732 30.948 12.72 30.99 12.696 31.062C11.832 32.226 11.022 33.51 10.266 34.914C10.542 34.95 10.806 34.968 11.058 34.968C12.066 34.968 13.056 34.746 14.028 34.302C15.168 33.786 15.882 33.12 16.17 32.304C16.206 32.208 16.23 32.112 16.242 32.016C16.254 31.92 16.26 31.83 16.26 31.746C16.26 30.942 15.732 30.444 14.676 30.252C13.944 30.108 13.116 30.036 12.192 30.036C11.196 30.036 10.206 30.126 9.222 30.306C8.25 30.474 7.284 30.732 6.324 31.08C6.276 31.092 6.234 31.104 6.198 31.116C6.174 31.116 6.15 31.116 6.126 31.116C6.042 31.116 6 31.08 6 31.008C6 30.864 6.102 30.702 6.306 30.522C6.474 30.354 6.642 30.246 6.81 30.198C8.13 29.766 9.666 29.55 11.418 29.55C12.666 29.55 13.866 29.676 15.018 29.928C16.374 30.24 17.052 30.888 17.052 31.872C17.052 32.16 16.968 32.484 16.8 32.844C16.416 33.624 15.684 34.254 14.604 34.734C13.68 35.142 12.72 35.346 11.724 35.346C11.46 35.346 11.19 35.34 10.914 35.328C10.638 35.304 10.362 35.28 10.086 35.256C8.874 37.548 8.268 39.054 8.268 39.774C8.268 39.834 8.274 39.882 8.286 39.918C8.298 39.942 8.304 39.966 8.304 39.99C8.304 40.014 8.304 40.032 8.304 40.044C8.304 40.212 8.238 40.296 8.106 40.296ZM16.062 39.216C15.642 39.216 15.432 38.97 15.432 38.478C15.432 37.794 15.732 36.99 16.332 36.066C16.32 36.006 16.308 35.94 16.296 35.868C16.296 35.796 16.296 35.73 16.296 35.67C16.296 35.238 16.44 34.818 16.728 34.41C17.016 34.002 17.37 33.798 17.79 33.798C18.15 33.798 18.39 33.924 18.51 34.176C18.642 34.428 18.708 34.71 18.708 35.022C18.708 35.286 18.678 35.538 18.618 35.778C18.558 36.03 18.468 36.312 18.348 36.624C18.228 36.936 18.078 37.266 17.898 37.614C18.078 37.722 18.282 37.776 18.51 37.776C18.714 37.776 18.906 37.752 19.086 37.704C19.266 37.644 19.434 37.536 19.59 37.38C19.746 37.224 19.866 37.086 19.95 36.966C20.046 36.846 20.088 36.792 20.076 36.804C20.1 36.78 20.124 36.768 20.148 36.768C20.196 36.768 20.232 36.798 20.256 36.858C20.292 36.918 20.286 36.978 20.238 37.038C20.046 37.314 19.794 37.56 19.482 37.776C19.182 37.98 18.852 38.082 18.492 38.082C18.216 38.082 17.976 38.022 17.772 37.902C17.22 38.778 16.65 39.216 16.062 39.216ZM17.664 37.452C17.82 37.068 17.94 36.738 18.024 36.462C18.108 36.186 18.15 35.928 18.15 35.688V35.544C18.15 35.22 18.096 34.92 17.988 34.644C17.88 34.356 17.724 34.212 17.52 34.212C17.244 34.212 17.028 34.38 16.872 34.716C16.764 34.944 16.71 35.196 16.71 35.472V35.58C16.902 35.352 17.094 35.238 17.286 35.238C17.466 35.238 17.598 35.298 17.682 35.418C17.718 35.466 17.736 35.508 17.736 35.544C17.736 35.616 17.664 35.652 17.52 35.652C17.304 35.652 17.076 35.88 16.836 36.336C17.004 36.804 17.28 37.176 17.664 37.452ZM16.35 38.784C16.506 38.784 16.728 38.64 17.016 38.352C17.136 38.232 17.238 38.118 17.322 38.01C17.406 37.902 17.472 37.8 17.52 37.704C17.112 37.428 16.812 37.122 16.62 36.786C16.26 37.542 16.08 38.088 16.08 38.424C16.08 38.664 16.17 38.784 16.35 38.784ZM22.7673 39.288C22.3593 39.288 22.0713 39.18 21.9033 38.964C21.7473 38.748 21.6693 38.472 21.6693 38.136C21.6693 37.86 21.7113 37.572 21.7953 37.272C21.8913 36.96 22.0053 36.672 22.1373 36.408C22.2693 36.144 22.3833 35.934 22.4793 35.778C22.4433 35.79 22.4073 35.802 22.3713 35.814C22.3353 35.814 22.2933 35.814 22.2453 35.814C22.0773 35.814 21.8913 35.754 21.6873 35.634C21.4713 35.49 21.3633 35.34 21.3633 35.184C21.2913 35.352 21.1893 35.544 21.0573 35.76C20.9373 35.976 20.7933 36.21 20.6253 36.462C20.1813 37.158 19.8873 37.506 19.7433 37.506C19.6953 37.506 19.6713 37.482 19.6713 37.434C19.6713 37.386 19.7073 37.314 19.7793 37.218C20.0073 36.906 20.2353 36.546 20.4633 36.138C20.7033 35.73 20.9433 35.274 21.1833 34.77C21.1713 34.71 21.1593 34.65 21.1473 34.59C21.1473 34.53 21.1473 34.458 21.1473 34.374C21.1473 34.098 21.2013 33.78 21.3093 33.42C21.4413 32.964 21.6033 32.736 21.7953 32.736C21.9153 32.736 22.0293 32.844 22.1373 33.06C22.1733 33.144 22.2033 33.228 22.2273 33.312C22.2513 33.384 22.2633 33.462 22.2633 33.546C22.2633 33.834 22.0173 34.272 21.5253 34.86C21.6333 35.232 21.8433 35.418 22.1553 35.418C22.3833 35.418 22.5933 35.304 22.7853 35.076C22.9893 34.836 23.1333 34.716 23.2173 34.716C23.3253 34.716 23.4213 34.758 23.5053 34.842C23.5893 34.926 23.6313 35.034 23.6313 35.166C23.6313 35.154 23.5533 35.262 23.3973 35.49C23.2533 35.718 23.0853 36.036 22.8933 36.444C22.7013 36.852 22.5633 37.2 22.4793 37.488C22.4073 37.776 22.3713 38.034 22.3713 38.262C22.3713 38.682 22.5693 38.892 22.9653 38.892C23.3493 38.892 23.8353 38.598 24.4233 38.01C24.6153 37.806 24.8373 37.548 25.0893 37.236C25.4013 36.852 25.5573 36.66 25.5573 36.66C25.6053 36.66 25.6293 36.696 25.6293 36.768C25.6293 36.864 25.5933 36.966 25.5213 37.074C25.3533 37.338 25.1673 37.602 24.9633 37.866C24.7713 38.118 24.5913 38.322 24.4233 38.478C23.8713 39.018 23.3193 39.288 22.7673 39.288ZM26.3659 39.09C25.9939 39.09 25.7299 38.964 25.5739 38.712C25.4179 38.46 25.3399 38.148 25.3399 37.776C25.3399 37.32 25.4179 36.846 25.5739 36.354C25.7299 35.85 25.8979 35.436 26.0779 35.112H25.9699C25.5499 35.112 25.2679 35.082 25.1239 35.022C24.9919 34.95 24.9259 34.836 24.9259 34.68C24.9259 34.596 24.9919 34.554 25.1239 34.554L26.2759 34.626C26.5759 34.026 26.8759 33.468 27.1759 32.952C27.4879 32.436 27.7459 32.076 27.9499 31.872C28.1179 31.704 28.3519 31.62 28.6519 31.62C28.9159 31.62 29.0479 31.674 29.0479 31.782C29.0479 31.806 29.0419 31.824 29.0299 31.836L28.2559 32.754C28.0759 32.97 27.8779 33.246 27.6619 33.582C27.4459 33.918 27.2299 34.278 27.0139 34.662C27.1459 34.674 27.2659 34.68 27.3739 34.68C27.4939 34.68 27.5959 34.68 27.6799 34.68C27.7279 34.68 27.7819 34.68 27.8419 34.68C27.9019 34.668 27.9739 34.662 28.0579 34.662H28.4359C28.5799 34.662 28.6519 34.698 28.6519 34.77C28.6519 34.95 28.0339 35.058 26.7979 35.094C26.6659 35.346 26.5339 35.64 26.4019 35.976C26.2699 36.3 26.1619 36.624 26.0779 36.948C26.0059 37.272 25.9699 37.566 25.9699 37.83C25.9699 38.382 26.2039 38.658 26.6719 38.658C27.0559 38.658 27.5059 38.424 28.0219 37.956C28.2259 37.764 28.3999 37.572 28.5439 37.38C28.6999 37.176 28.8499 36.972 28.9939 36.768C29.0659 36.66 29.1319 36.606 29.1919 36.606C29.2519 36.606 29.2819 36.642 29.2819 36.714C29.2819 36.762 29.2699 36.81 29.2459 36.858C29.2339 36.894 29.2219 36.924 29.2099 36.948C29.0539 37.152 28.8799 37.374 28.6879 37.614C28.5079 37.854 28.2919 38.088 28.0399 38.316C27.4519 38.832 26.8939 39.09 26.3659 39.09ZM27.9894 45.408C27.5454 45.408 27.2514 45.228 27.1074 44.868C26.9634 44.52 26.8914 44.106 26.8914 43.626C26.8914 43.206 26.9694 42.696 27.1254 42.096C27.2694 41.496 27.4614 40.854 27.7014 40.17C27.9294 39.498 28.1814 38.832 28.4574 38.172C28.7454 37.5 29.0214 36.888 29.2854 36.336C29.5854 35.712 29.8434 35.184 30.0594 34.752C30.2874 34.308 30.4914 33.918 30.6714 33.582C30.8634 33.246 31.0434 32.922 31.2114 32.61C31.3914 32.286 31.5834 31.932 31.7874 31.548C32.0274 31.116 32.2374 30.75 32.4174 30.45C32.6094 30.138 32.7474 29.934 32.8314 29.838C32.8914 29.778 32.9814 29.712 33.1014 29.64C33.2334 29.556 33.3534 29.514 33.4614 29.514C33.6294 29.514 33.7134 29.616 33.7134 29.82C33.7134 29.904 33.6354 30.084 33.4794 30.36C33.3234 30.636 33.1194 30.966 32.8674 31.35C32.6154 31.722 32.3514 32.112 32.0754 32.52C31.7274 33.036 31.3674 33.594 30.9954 34.194C30.6354 34.794 30.2814 35.412 29.9334 36.048C30.0294 35.976 30.1194 35.94 30.2034 35.94C30.6114 35.94 30.9414 36.588 31.1934 37.884C31.3254 38.016 31.4634 38.094 31.6074 38.118C31.7514 38.142 31.8774 38.154 31.9854 38.154C32.2974 38.154 32.6394 37.968 33.0114 37.596C33.2034 37.404 33.3654 37.212 33.4974 37.02C33.6294 36.828 33.7314 36.69 33.8034 36.606C33.8394 36.57 33.8754 36.552 33.9114 36.552C33.9954 36.552 34.0374 36.588 34.0374 36.66C34.0374 36.72 33.9954 36.81 33.9114 36.93C33.5874 37.386 33.2694 37.758 32.9574 38.046C32.6454 38.322 32.3274 38.466 32.0034 38.478C31.8234 38.478 31.6554 38.46 31.4994 38.424C31.3554 38.376 31.2594 38.322 31.2114 38.262C31.3194 38.958 31.3254 39.63 31.2294 40.278C31.1454 40.938 30.9774 41.616 30.7254 42.312C30.5334 42.828 30.3054 43.32 30.0414 43.788C29.7894 44.268 29.4954 44.658 29.1594 44.958C28.8234 45.258 28.4334 45.408 27.9894 45.408ZM28.2414 44.922C28.5534 44.922 28.8414 44.778 29.1054 44.49C29.3814 44.202 29.6274 43.854 29.8434 43.446C30.0594 43.038 30.2394 42.648 30.3834 42.276C30.6474 41.592 30.8154 40.89 30.8874 40.17C30.9714 39.462 30.9414 38.772 30.7974 38.1C30.5214 37.896 30.2754 37.638 30.0594 37.326C29.8554 37.002 29.7534 36.69 29.7534 36.39C29.0454 37.986 28.4874 39.42 28.0794 40.692C27.6714 41.964 27.4674 43.02 27.4674 43.86C27.4674 44.268 27.5514 44.544 27.7194 44.688C27.8754 44.844 28.0494 44.922 28.2414 44.922ZM33.728 39.216C33.308 39.216 33.098 38.97 33.098 38.478C33.098 37.794 33.398 36.99 33.998 36.066C33.986 36.006 33.974 35.94 33.962 35.868C33.962 35.796 33.962 35.73 33.962 35.67C33.962 35.238 34.106 34.818 34.394 34.41C34.682 34.002 35.036 33.798 35.456 33.798C35.816 33.798 36.056 33.924 36.176 34.176C36.308 34.428 36.374 34.71 36.374 35.022C36.374 35.286 36.344 35.538 36.284 35.778C36.224 36.03 36.134 36.312 36.014 36.624C35.894 36.936 35.744 37.266 35.564 37.614C35.744 37.722 35.948 37.776 36.176 37.776C36.38 37.776 36.572 37.752 36.752 37.704C36.932 37.644 37.1 37.536 37.256 37.38C37.412 37.224 37.532 37.086 37.616 36.966C37.712 36.846 37.754 36.792 37.742 36.804C37.766 36.78 37.79 36.768 37.814 36.768C37.862 36.768 37.898 36.798 37.922 36.858C37.958 36.918 37.952 36.978 37.904 37.038C37.712 37.314 37.46 37.56 37.148 37.776C36.848 37.98 36.518 38.082 36.158 38.082C35.882 38.082 35.642 38.022 35.438 37.902C34.886 38.778 34.316 39.216 33.728 39.216ZM35.33 37.452C35.486 37.068 35.606 36.738 35.69 36.462C35.774 36.186 35.816 35.928 35.816 35.688V35.544C35.816 35.22 35.762 34.92 35.654 34.644C35.546 34.356 35.39 34.212 35.186 34.212C34.91 34.212 34.694 34.38 34.538 34.716C34.43 34.944 34.376 35.196 34.376 35.472V35.58C34.568 35.352 34.76 35.238 34.952 35.238C35.132 35.238 35.264 35.298 35.348 35.418C35.384 35.466 35.402 35.508 35.402 35.544C35.402 35.616 35.33 35.652 35.186 35.652C34.97 35.652 34.742 35.88 34.502 36.336C34.67 36.804 34.946 37.176 35.33 37.452ZM34.016 38.784C34.172 38.784 34.394 38.64 34.682 38.352C34.802 38.232 34.904 38.118 34.988 38.01C35.072 37.902 35.138 37.8 35.186 37.704C34.778 37.428 34.478 37.122 34.286 36.786C33.926 37.542 33.746 38.088 33.746 38.424C33.746 38.664 33.836 38.784 34.016 38.784ZM35.132 33.168C35.06 33.168 35.024 33.144 35.024 33.096C35.024 33.06 35.042 33.024 35.078 32.988C35.534 32.532 36.056 32.088 36.644 31.656C36.716 31.596 36.782 31.56 36.842 31.548C36.902 31.524 36.944 31.512 36.968 31.512C36.992 31.512 37.022 31.524 37.058 31.548C37.106 31.572 37.13 31.656 37.13 31.8C37.13 31.86 37.112 31.914 37.076 31.962C37.04 32.01 37.01 32.046 36.986 32.07C36.95 32.094 36.842 32.166 36.662 32.286C36.494 32.394 36.296 32.52 36.068 32.664C35.852 32.796 35.654 32.916 35.474 33.024C35.294 33.12 35.18 33.168 35.132 33.168ZM38.8853 39.234C38.2373 39.234 37.8353 38.844 37.6793 38.064C37.6673 37.956 37.6493 37.848 37.6253 37.74C37.6133 37.632 37.6073 37.524 37.6073 37.416C37.6073 36.876 37.7033 36.324 37.8953 35.76C38.0993 35.196 38.3453 34.644 38.6333 34.104C38.9213 33.564 39.1853 33.066 39.4253 32.61C39.6533 32.19 39.9053 31.776 40.1813 31.368C40.4693 30.948 40.7513 30.564 41.0273 30.216C41.3033 29.868 41.5373 29.586 41.7293 29.37C42.0413 29.022 42.3413 28.776 42.6293 28.632C42.9173 28.476 43.1753 28.398 43.4033 28.398C43.5593 28.398 43.6973 28.476 43.8173 28.632C43.9493 28.8 44.0153 28.962 44.0153 29.118C44.0153 29.946 43.2413 31.332 41.6933 33.276C41.0813 34.044 40.4933 34.74 39.9293 35.364C39.3653 35.976 38.8193 36.528 38.2913 37.02C38.2793 37.116 38.2673 37.218 38.2553 37.326C38.2553 37.422 38.2553 37.518 38.2553 37.614C38.2553 38.022 38.3213 38.334 38.4533 38.55C38.5853 38.754 38.8193 38.856 39.1553 38.856C39.4913 38.856 39.8813 38.664 40.3253 38.28C40.7813 37.884 41.2493 37.332 41.7293 36.624C41.7653 36.564 41.8073 36.528 41.8553 36.516C41.9273 36.516 41.9633 36.558 41.9633 36.642C41.9633 36.702 41.9513 36.75 41.9273 36.786C41.7593 37.074 41.5673 37.35 41.3513 37.614C41.1473 37.878 40.9133 38.13 40.6493 38.37C40.3493 38.634 40.0493 38.844 39.7493 39C39.4613 39.156 39.1733 39.234 38.8853 39.234ZM38.3273 36.624C38.6633 36.336 39.0593 35.922 39.5153 35.382C39.9833 34.83 40.4753 34.188 40.9913 33.456C42.1553 31.848 42.8513 30.684 43.0793 29.964C43.1873 29.616 43.2413 29.358 43.2413 29.19C43.2413 28.962 43.1633 28.848 43.0073 28.848C42.6593 28.848 42.2333 29.184 41.7293 29.856C41.4413 30.24 41.1053 30.732 40.7213 31.332C40.3373 31.92 39.9653 32.562 39.6053 33.258C39.1853 34.062 38.8853 34.728 38.7053 35.256C38.5373 35.784 38.4113 36.24 38.3273 36.624ZM43.1661 34.41C42.8781 34.41 42.7341 34.266 42.7341 33.978C42.7341 33.834 42.7881 33.708 42.8961 33.6C43.0161 33.48 43.1541 33.42 43.3101 33.42C43.5981 33.42 43.7421 33.564 43.7421 33.852C43.7421 33.996 43.6881 34.122 43.5801 34.23C43.4601 34.35 43.3221 34.41 43.1661 34.41ZM42.1221 39.306C41.4621 39.306 41.1321 38.952 41.1321 38.244C41.1321 37.908 41.2521 37.416 41.4921 36.768C41.6001 36.468 41.7081 36.216 41.8161 36.012C41.9361 35.796 42.0561 35.598 42.1761 35.418C42.2481 35.31 42.3321 35.256 42.4281 35.256C42.5241 35.256 42.6201 35.304 42.7161 35.4C42.7761 35.46 42.8061 35.538 42.8061 35.634C42.8061 35.718 42.7821 35.802 42.7341 35.886C42.4701 36.294 42.2541 36.708 42.0861 37.128C41.9181 37.536 41.8341 37.902 41.8341 38.226C41.8341 38.658 41.9901 38.874 42.3021 38.874C42.4701 38.874 42.6621 38.832 42.8781 38.748C43.0941 38.652 43.3101 38.508 43.5261 38.316C43.6701 38.184 43.8201 38.034 43.9761 37.866C44.1441 37.698 44.3121 37.5 44.4801 37.272C44.7921 36.888 44.9481 36.696 44.9481 36.696C45.0081 36.696 45.0381 36.744 45.0381 36.84C45.0381 36.936 44.9961 37.032 44.9121 37.128C43.8201 38.58 42.8901 39.306 42.1221 39.306ZM44.9429 39.216C44.5229 39.216 44.3129 38.97 44.3129 38.478C44.3129 37.794 44.6129 36.99 45.2129 36.066C45.2009 36.006 45.1889 35.94 45.1769 35.868C45.1769 35.796 45.1769 35.73 45.1769 35.67C45.1769 35.238 45.3209 34.818 45.6089 34.41C45.8969 34.002 46.2509 33.798 46.6709 33.798C47.0309 33.798 47.2709 33.924 47.3909 34.176C47.5229 34.428 47.5889 34.71 47.5889 35.022C47.5889 35.286 47.5589 35.538 47.4989 35.778C47.4389 36.03 47.3489 36.312 47.2289 36.624C47.1089 36.936 46.9589 37.266 46.7789 37.614C46.9589 37.722 47.1629 37.776 47.3909 37.776C47.5949 37.776 47.7869 37.752 47.9669 37.704C48.1469 37.644 48.3149 37.536 48.4709 37.38C48.6269 37.224 48.7469 37.086 48.8309 36.966C48.9269 36.846 48.9689 36.792 48.9569 36.804C48.9809 36.78 49.0049 36.768 49.0289 36.768C49.0769 36.768 49.1129 36.798 49.1369 36.858C49.1729 36.918 49.1669 36.978 49.1189 37.038C48.9269 37.314 48.6749 37.56 48.3629 37.776C48.0629 37.98 47.7329 38.082 47.3729 38.082C47.0969 38.082 46.8569 38.022 46.6529 37.902C46.1009 38.778 45.5309 39.216 44.9429 39.216ZM46.5449 37.452C46.7009 37.068 46.8209 36.738 46.9049 36.462C46.9889 36.186 47.0309 35.928 47.0309 35.688V35.544C47.0309 35.22 46.9769 34.92 46.8689 34.644C46.7609 34.356 46.6049 34.212 46.4009 34.212C46.1249 34.212 45.9089 34.38 45.7529 34.716C45.6449 34.944 45.5909 35.196 45.5909 35.472V35.58C45.7829 35.352 45.9749 35.238 46.1669 35.238C46.3469 35.238 46.4789 35.298 46.5629 35.418C46.5989 35.466 46.6169 35.508 46.6169 35.544C46.6169 35.616 46.5449 35.652 46.4009 35.652C46.1849 35.652 45.9569 35.88 45.7169 36.336C45.8849 36.804 46.1609 37.176 46.5449 37.452ZM45.2309 38.784C45.3869 38.784 45.6089 38.64 45.8969 38.352C46.0169 38.232 46.1189 38.118 46.2029 38.01C46.2869 37.902 46.3529 37.8 46.4009 37.704C45.9929 37.428 45.6929 37.122 45.5009 36.786C45.1409 37.542 44.9609 38.088 44.9609 38.424C44.9609 38.664 45.0509 38.784 45.2309 38.784Z" fill="black"/>
</svg>
