<svg width="107" height="87" viewBox="0 0 107 87" fill="none" xmlns="http://www.w3.org/2000/svg">
<path d="M3.312 57V18.12H8.64V57H3.312ZM14.9303 57V18.12H18.6263L29.6663 43.944V18.12H34.1783V57H30.7223L19.5383 30.456V57H14.9303ZM50.2256 57.432C47.6016 57.432 45.5056 56.92 43.9376 55.896C42.3696 54.872 41.2496 53.416 40.5776 51.528C39.9056 49.608 39.5696 47.368 39.5696 44.808V30.072C39.5696 27.512 39.9056 25.32 40.5776 23.496C41.2816 21.64 42.4016 20.232 43.9376 19.272C45.5056 18.28 47.6016 17.784 50.2256 17.784C52.8496 17.784 54.9296 18.28 56.4656 19.272C58.0016 20.264 59.1056 21.672 59.7776 23.496C60.4816 25.32 60.8336 27.512 60.8336 30.072V44.856C60.8336 47.384 60.4816 49.592 59.7776 51.48C59.1056 53.368 58.0016 54.84 56.4656 55.896C54.9296 56.92 52.8496 57.432 50.2256 57.432ZM50.2256 53.16C51.6656 53.16 52.7536 52.872 53.4896 52.296C54.2256 51.688 54.7216 50.856 54.9776 49.8C55.2336 48.712 55.3616 47.448 55.3616 46.008V28.968C55.3616 27.528 55.2336 26.296 54.9776 25.272C54.7216 24.216 54.2256 23.416 53.4896 22.872C52.7536 22.296 51.6656 22.008 50.2256 22.008C48.7856 22.008 47.6816 22.296 46.9136 22.872C46.1776 23.416 45.6816 24.216 45.4256 25.272C45.1696 26.296 45.0416 27.528 45.0416 28.968V46.008C45.0416 47.448 45.1696 48.712 45.4256 49.8C45.6816 50.856 46.1776 51.688 46.9136 52.296C47.6816 52.872 48.7856 53.16 50.2256 53.16ZM72.9326 57L64.2446 18.12H69.3326L75.4766 46.776L81.3326 18.12H86.2766L77.6846 57H72.9326ZM90.399 57V18.12H105.471V22.152H95.823V35.016H103.647V38.856H95.823V53.112H105.567V57H90.399Z" fill="black"/>
<path d="M16.212 73.592C15.828 73.592 15.636 73.268 15.636 72.62C15.636 70.964 16.716 67.856 18.876 63.296C16.884 62.888 15.888 62.324 15.888 61.604C15.888 61.124 16.188 60.728 16.788 60.416C17.316 60.152 17.832 60.02 18.336 60.02C18.6 60.02 18.732 60.104 18.732 60.272C18.732 60.368 18.648 60.452 18.48 60.524C18.336 60.596 18.132 60.656 17.868 60.704C17.628 60.752 17.412 60.836 17.22 60.956C17.052 61.052 16.968 61.184 16.968 61.352C16.968 61.76 17.712 62.168 19.2 62.576C19.656 61.616 20.1 60.704 20.532 59.84C20.988 58.976 21.444 58.148 21.9 57.356C21.924 57.308 22.056 57.068 22.296 56.636C22.56 56.204 22.836 55.784 23.124 55.376C23.484 54.872 24.096 54.62 24.96 54.62C25.296 54.62 25.464 54.704 25.464 54.872C25.464 54.896 25.44 54.98 25.392 55.124C23.664 57.452 22.044 60.02 20.532 62.828C21.084 62.9 21.612 62.936 22.116 62.936C24.132 62.936 26.112 62.492 28.056 61.604C30.336 60.572 31.764 59.24 32.34 57.608C32.412 57.416 32.46 57.224 32.484 57.032C32.508 56.84 32.52 56.66 32.52 56.492C32.52 54.884 31.464 53.888 29.352 53.504C27.888 53.216 26.232 53.072 24.384 53.072C22.392 53.072 20.412 53.252 18.444 53.612C16.5 53.948 14.568 54.464 12.648 55.16C12.552 55.184 12.468 55.208 12.396 55.232C12.348 55.232 12.3 55.232 12.252 55.232C12.084 55.232 12 55.16 12 55.016C12 54.728 12.204 54.404 12.612 54.044C12.948 53.708 13.284 53.492 13.62 53.396C16.26 52.532 19.332 52.1 22.836 52.1C25.332 52.1 27.732 52.352 30.036 52.856C32.748 53.48 34.104 54.776 34.104 56.744C34.104 57.32 33.936 57.968 33.6 58.688C32.832 60.248 31.368 61.508 29.208 62.468C27.36 63.284 25.44 63.692 23.448 63.692C22.92 63.692 22.38 63.68 21.828 63.656C21.276 63.608 20.724 63.56 20.172 63.512C17.748 68.096 16.536 71.108 16.536 72.548C16.536 72.668 16.548 72.764 16.572 72.836C16.596 72.884 16.608 72.932 16.608 72.98C16.608 73.028 16.608 73.064 16.608 73.088C16.608 73.424 16.476 73.592 16.212 73.592ZM32.124 71.432C31.284 71.432 30.864 70.94 30.864 69.956C30.864 68.588 31.464 66.98 32.664 65.132C32.64 65.012 32.616 64.88 32.592 64.736C32.592 64.592 32.592 64.46 32.592 64.34C32.592 63.476 32.88 62.636 33.456 61.82C34.032 61.004 34.74 60.596 35.58 60.596C36.3 60.596 36.78 60.848 37.02 61.352C37.284 61.856 37.416 62.42 37.416 63.044C37.416 63.572 37.356 64.076 37.236 64.556C37.116 65.06 36.936 65.624 36.696 66.248C36.456 66.872 36.156 67.532 35.796 68.228C36.156 68.444 36.564 68.552 37.02 68.552C37.428 68.552 37.812 68.504 38.172 68.408C38.532 68.288 38.868 68.072 39.18 67.76C39.492 67.448 39.732 67.172 39.9 66.932C40.092 66.692 40.176 66.584 40.152 66.608C40.2 66.56 40.248 66.536 40.296 66.536C40.392 66.536 40.464 66.596 40.512 66.716C40.584 66.836 40.572 66.956 40.476 67.076C40.092 67.628 39.588 68.12 38.964 68.552C38.364 68.96 37.704 69.164 36.984 69.164C36.432 69.164 35.952 69.044 35.544 68.804C34.44 70.556 33.3 71.432 32.124 71.432ZM35.328 67.904C35.64 67.136 35.88 66.476 36.048 65.924C36.216 65.372 36.3 64.856 36.3 64.376V64.088C36.3 63.44 36.192 62.84 35.976 62.288C35.76 61.712 35.448 61.424 35.04 61.424C34.488 61.424 34.056 61.76 33.744 62.432C33.528 62.888 33.42 63.392 33.42 63.944V64.16C33.804 63.704 34.188 63.476 34.572 63.476C34.932 63.476 35.196 63.596 35.364 63.836C35.436 63.932 35.472 64.016 35.472 64.088C35.472 64.232 35.328 64.304 35.04 64.304C34.608 64.304 34.152 64.76 33.672 65.672C34.008 66.608 34.56 67.352 35.328 67.904ZM32.7 70.568C33.012 70.568 33.456 70.28 34.032 69.704C34.272 69.464 34.476 69.236 34.644 69.02C34.812 68.804 34.944 68.6 35.04 68.408C34.224 67.856 33.624 67.244 33.24 66.572C32.52 68.084 32.16 69.176 32.16 69.848C32.16 70.328 32.34 70.568 32.7 70.568ZM45.5346 71.576C44.7186 71.576 44.1426 71.36 43.8066 70.928C43.4946 70.496 43.3386 69.944 43.3386 69.272C43.3386 68.72 43.4226 68.144 43.5906 67.544C43.7826 66.92 44.0106 66.344 44.2746 65.816C44.5386 65.288 44.7666 64.868 44.9586 64.556C44.8866 64.58 44.8146 64.604 44.7426 64.628C44.6706 64.628 44.5866 64.628 44.4906 64.628C44.1546 64.628 43.7826 64.508 43.3746 64.268C42.9426 63.98 42.7266 63.68 42.7266 63.368C42.5826 63.704 42.3786 64.088 42.1146 64.52C41.8746 64.952 41.5866 65.42 41.2506 65.924C40.3626 67.316 39.7746 68.012 39.4866 68.012C39.3906 68.012 39.3426 67.964 39.3426 67.868C39.3426 67.772 39.4146 67.628 39.5586 67.436C40.0146 66.812 40.4706 66.092 40.9266 65.276C41.4066 64.46 41.8866 63.548 42.3666 62.54C42.3426 62.42 42.3186 62.3 42.2946 62.18C42.2946 62.06 42.2946 61.916 42.2946 61.748C42.2946 61.196 42.4026 60.56 42.6186 59.84C42.8826 58.928 43.2066 58.472 43.5906 58.472C43.8306 58.472 44.0586 58.688 44.2746 59.12C44.3466 59.288 44.4066 59.456 44.4546 59.624C44.5026 59.768 44.5266 59.924 44.5266 60.092C44.5266 60.668 44.0346 61.544 43.0506 62.72C43.2666 63.464 43.6866 63.836 44.3106 63.836C44.7666 63.836 45.1866 63.608 45.5706 63.152C45.9786 62.672 46.2666 62.432 46.4346 62.432C46.6506 62.432 46.8426 62.516 47.0106 62.684C47.1786 62.852 47.2626 63.068 47.2626 63.332C47.2626 63.308 47.1066 63.524 46.7946 63.98C46.5066 64.436 46.1706 65.072 45.7866 65.888C45.4026 66.704 45.1266 67.4 44.9586 67.976C44.8146 68.552 44.7426 69.068 44.7426 69.524C44.7426 70.364 45.1386 70.784 45.9306 70.784C46.6986 70.784 47.6706 70.196 48.8466 69.02C49.2306 68.612 49.6746 68.096 50.1786 67.472C50.8026 66.704 51.1146 66.32 51.1146 66.32C51.2106 66.32 51.2586 66.392 51.2586 66.536C51.2586 66.728 51.1866 66.932 51.0426 67.148C50.7066 67.676 50.3346 68.204 49.9266 68.732C49.5426 69.236 49.1826 69.644 48.8466 69.956C47.7426 71.036 46.6386 71.576 45.5346 71.576ZM52.7318 71.18C51.9878 71.18 51.4598 70.928 51.1478 70.424C50.8358 69.92 50.6798 69.296 50.6798 68.552C50.6798 67.64 50.8358 66.692 51.1478 65.708C51.4598 64.7 51.7958 63.872 52.1558 63.224H51.9398C51.0998 63.224 50.5358 63.164 50.2478 63.044C49.9838 62.9 49.8518 62.672 49.8518 62.36C49.8518 62.192 49.9838 62.108 50.2478 62.108L52.5518 62.252C53.1518 61.052 53.7518 59.936 54.3518 58.904C54.9758 57.872 55.4918 57.152 55.8998 56.744C56.2358 56.408 56.7038 56.24 57.3038 56.24C57.8318 56.24 58.0957 56.348 58.0957 56.564C58.0957 56.612 58.0838 56.648 58.0598 56.672L56.5118 58.508C56.1518 58.94 55.7558 59.492 55.3238 60.164C54.8918 60.836 54.4598 61.556 54.0278 62.324C54.2918 62.348 54.5318 62.36 54.7478 62.36C54.9878 62.36 55.1918 62.36 55.3598 62.36C55.4558 62.36 55.5638 62.36 55.6838 62.36C55.8038 62.336 55.9478 62.324 56.1158 62.324H56.8718C57.1598 62.324 57.3038 62.396 57.3038 62.54C57.3038 62.9 56.0678 63.116 53.5957 63.188C53.3318 63.692 53.0678 64.28 52.8038 64.952C52.5398 65.6 52.3238 66.248 52.1558 66.896C52.0118 67.544 51.9398 68.132 51.9398 68.66C51.9398 69.764 52.4078 70.316 53.3438 70.316C54.1118 70.316 55.0118 69.848 56.0438 68.912C56.4518 68.528 56.7998 68.144 57.0878 67.76C57.3998 67.352 57.6998 66.944 57.9878 66.536C58.1318 66.32 58.2638 66.212 58.3838 66.212C58.5038 66.212 58.5638 66.284 58.5638 66.428C58.5638 66.524 58.5398 66.62 58.4918 66.716C58.4678 66.788 58.4438 66.848 58.4198 66.896C58.1078 67.304 57.7598 67.748 57.3758 68.228C57.0158 68.708 56.5838 69.176 56.0798 69.632C54.9038 70.664 53.7878 71.18 52.7318 71.18ZM55.9788 83.816C55.0908 83.816 54.5028 83.456 54.2148 82.736C53.9268 82.04 53.7828 81.212 53.7828 80.252C53.7828 79.412 53.9388 78.392 54.2508 77.192C54.5388 75.992 54.9228 74.708 55.4028 73.34C55.8588 71.996 56.3628 70.664 56.9148 69.344C57.4908 68 58.0428 66.776 58.5708 65.672C59.1708 64.424 59.6868 63.368 60.1188 62.504C60.5748 61.616 60.9828 60.836 61.3428 60.164C61.7268 59.492 62.0868 58.844 62.4228 58.22C62.7828 57.572 63.1668 56.864 63.5748 56.096C64.0548 55.232 64.4748 54.5 64.8348 53.9C65.2188 53.276 65.4948 52.868 65.6628 52.676C65.7828 52.556 65.9628 52.424 66.2028 52.28C66.4668 52.112 66.7068 52.028 66.9228 52.028C67.2588 52.028 67.4268 52.232 67.4268 52.64C67.4268 52.808 67.2708 53.168 66.9588 53.72C66.6468 54.272 66.2388 54.932 65.7348 55.7C65.2308 56.444 64.7028 57.224 64.1508 58.04C63.4548 59.072 62.7348 60.188 61.9908 61.388C61.2708 62.588 60.5628 63.824 59.8668 65.096C60.0588 64.952 60.2388 64.88 60.4068 64.88C61.2228 64.88 61.8828 66.176 62.3868 68.768C62.6508 69.032 62.9268 69.188 63.2148 69.236C63.5028 69.284 63.7548 69.308 63.9708 69.308C64.5948 69.308 65.2788 68.936 66.0228 68.192C66.4068 67.808 66.7308 67.424 66.9948 67.04C67.2588 66.656 67.4628 66.38 67.6068 66.212C67.6788 66.14 67.7508 66.104 67.8228 66.104C67.9908 66.104 68.0748 66.176 68.0748 66.32C68.0748 66.44 67.9908 66.62 67.8228 66.86C67.1748 67.772 66.5388 68.516 65.9148 69.092C65.2908 69.644 64.6548 69.932 64.0068 69.956C63.6468 69.956 63.3108 69.92 62.9988 69.848C62.7108 69.752 62.5188 69.644 62.4228 69.524C62.6388 70.916 62.6508 72.26 62.4588 73.556C62.2908 74.876 61.9548 76.232 61.4508 77.624C61.0668 78.656 60.6108 79.64 60.0828 80.576C59.5788 81.536 58.9908 82.316 58.3188 82.916C57.6468 83.516 56.8668 83.816 55.9788 83.816ZM56.4828 82.844C57.1068 82.844 57.6828 82.556 58.2108 81.98C58.7628 81.404 59.2548 80.708 59.6868 79.892C60.1188 79.076 60.4788 78.296 60.7668 77.552C61.2948 76.184 61.6308 74.78 61.7748 73.34C61.9428 71.924 61.8828 70.544 61.5948 69.2C61.0428 68.792 60.5508 68.276 60.1188 67.652C59.7108 67.004 59.5068 66.38 59.5068 65.78C58.0908 68.972 56.9748 71.84 56.1588 74.384C55.3428 76.928 54.9348 79.04 54.9348 80.72C54.9348 81.536 55.1028 82.088 55.4388 82.376C55.7508 82.688 56.0988 82.844 56.4828 82.844ZM67.456 71.432C66.616 71.432 66.196 70.94 66.196 69.956C66.196 68.588 66.796 66.98 67.996 65.132C67.972 65.012 67.948 64.88 67.924 64.736C67.924 64.592 67.924 64.46 67.924 64.34C67.924 63.476 68.212 62.636 68.788 61.82C69.364 61.004 70.072 60.596 70.912 60.596C71.632 60.596 72.112 60.848 72.352 61.352C72.616 61.856 72.748 62.42 72.748 63.044C72.748 63.572 72.688 64.076 72.568 64.556C72.448 65.06 72.268 65.624 72.028 66.248C71.788 66.872 71.488 67.532 71.128 68.228C71.488 68.444 71.896 68.552 72.352 68.552C72.76 68.552 73.144 68.504 73.504 68.408C73.864 68.288 74.2 68.072 74.512 67.76C74.824 67.448 75.064 67.172 75.232 66.932C75.424 66.692 75.508 66.584 75.484 66.608C75.532 66.56 75.58 66.536 75.628 66.536C75.724 66.536 75.796 66.596 75.844 66.716C75.916 66.836 75.904 66.956 75.808 67.076C75.424 67.628 74.92 68.12 74.296 68.552C73.696 68.96 73.036 69.164 72.316 69.164C71.764 69.164 71.284 69.044 70.876 68.804C69.772 70.556 68.632 71.432 67.456 71.432ZM70.66 67.904C70.972 67.136 71.212 66.476 71.38 65.924C71.548 65.372 71.632 64.856 71.632 64.376V64.088C71.632 63.44 71.524 62.84 71.308 62.288C71.092 61.712 70.78 61.424 70.372 61.424C69.82 61.424 69.388 61.76 69.076 62.432C68.86 62.888 68.752 63.392 68.752 63.944V64.16C69.136 63.704 69.52 63.476 69.904 63.476C70.264 63.476 70.528 63.596 70.696 63.836C70.768 63.932 70.804 64.016 70.804 64.088C70.804 64.232 70.66 64.304 70.372 64.304C69.94 64.304 69.484 64.76 69.004 65.672C69.34 66.608 69.892 67.352 70.66 67.904ZM68.032 70.568C68.344 70.568 68.788 70.28 69.364 69.704C69.604 69.464 69.808 69.236 69.976 69.02C70.144 68.804 70.276 68.6 70.372 68.408C69.556 67.856 68.956 67.244 68.572 66.572C67.852 68.084 67.492 69.176 67.492 69.848C67.492 70.328 67.672 70.568 68.032 70.568ZM70.264 59.336C70.12 59.336 70.048 59.288 70.048 59.192C70.048 59.12 70.084 59.048 70.156 58.976C71.068 58.064 72.112 57.176 73.288 56.312C73.432 56.192 73.564 56.12 73.684 56.096C73.804 56.048 73.888 56.024 73.936 56.024C73.984 56.024 74.044 56.048 74.116 56.096C74.212 56.144 74.26 56.312 74.26 56.6C74.26 56.72 74.224 56.828 74.152 56.924C74.08 57.02 74.02 57.092 73.972 57.14C73.9 57.188 73.684 57.332 73.324 57.572C72.988 57.788 72.592 58.04 72.136 58.328C71.704 58.592 71.308 58.832 70.948 59.048C70.588 59.24 70.36 59.336 70.264 59.336ZM77.7706 71.468C76.4746 71.468 75.6706 70.688 75.3586 69.128C75.3346 68.912 75.2986 68.696 75.2506 68.48C75.2266 68.264 75.2146 68.048 75.2146 67.832C75.2146 66.752 75.4066 65.648 75.7906 64.52C76.1986 63.392 76.6906 62.288 77.2666 61.208C77.8426 60.128 78.3706 59.132 78.8506 58.22C79.3066 57.38 79.8106 56.552 80.3626 55.736C80.9386 54.896 81.5026 54.128 82.0546 53.432C82.6066 52.736 83.0746 52.172 83.4586 51.74C84.0826 51.044 84.6826 50.552 85.2586 50.264C85.8346 49.952 86.3506 49.796 86.8066 49.796C87.1186 49.796 87.3946 49.952 87.6346 50.264C87.8986 50.6 88.0306 50.924 88.0306 51.236C88.0306 52.892 86.4826 55.664 83.3866 59.552C82.1626 61.088 80.9866 62.48 79.8586 63.728C78.7306 64.952 77.6386 66.056 76.5826 67.04C76.5586 67.232 76.5346 67.436 76.5106 67.652C76.5106 67.844 76.5106 68.036 76.5106 68.228C76.5106 69.044 76.6426 69.668 76.9066 70.1C77.1706 70.508 77.6386 70.712 78.3106 70.712C78.9826 70.712 79.7626 70.328 80.6506 69.56C81.5626 68.768 82.4986 67.664 83.4586 66.248C83.5306 66.128 83.6146 66.056 83.7106 66.032C83.8546 66.032 83.9266 66.116 83.9266 66.284C83.9266 66.404 83.9026 66.5 83.8546 66.572C83.5186 67.148 83.1346 67.7 82.7026 68.228C82.2946 68.756 81.8266 69.26 81.2986 69.74C80.6986 70.268 80.0986 70.688 79.4986 71C78.9226 71.312 78.3466 71.468 77.7706 71.468ZM76.6546 66.248C77.3266 65.672 78.1186 64.844 79.0306 63.764C79.9666 62.66 80.9506 61.376 81.9826 59.912C84.3106 56.696 85.7026 54.368 86.1586 52.928C86.3746 52.232 86.4826 51.716 86.4826 51.38C86.4826 50.924 86.3266 50.696 86.0146 50.696C85.3186 50.696 84.4666 51.368 83.4586 52.712C82.8826 53.48 82.2106 54.464 81.4426 55.664C80.6746 56.84 79.9306 58.124 79.2106 59.516C78.3706 61.124 77.7706 62.456 77.4106 63.512C77.0746 64.568 76.8226 65.48 76.6546 66.248ZM86.3321 61.82C85.7561 61.82 85.4681 61.532 85.4681 60.956C85.4681 60.668 85.5761 60.416 85.7921 60.2C86.0321 59.96 86.3081 59.84 86.6201 59.84C87.1961 59.84 87.4841 60.128 87.4841 60.704C87.4841 60.992 87.3761 61.244 87.1601 61.46C86.9201 61.7 86.6441 61.82 86.3321 61.82ZM84.2441 71.612C82.9241 71.612 82.2641 70.904 82.2641 69.488C82.2641 68.816 82.5041 67.832 82.9841 66.536C83.2001 65.936 83.4161 65.432 83.6321 65.024C83.8721 64.592 84.1121 64.196 84.3521 63.836C84.4961 63.62 84.6641 63.512 84.8561 63.512C85.0481 63.512 85.2401 63.608 85.4321 63.8C85.5521 63.92 85.6121 64.076 85.6121 64.268C85.6121 64.436 85.5641 64.604 85.4681 64.772C84.9401 65.588 84.5081 66.416 84.1721 67.256C83.8361 68.072 83.6681 68.804 83.6681 69.452C83.6681 70.316 83.9801 70.748 84.6041 70.748C84.9401 70.748 85.3241 70.664 85.7561 70.496C86.1881 70.304 86.6201 70.016 87.0521 69.632C87.3401 69.368 87.6401 69.068 87.9521 68.732C88.2881 68.396 88.6241 68 88.9601 67.544C89.5841 66.776 89.8961 66.392 89.8961 66.392C90.0161 66.392 90.0761 66.488 90.0761 66.68C90.0761 66.872 89.9921 67.064 89.8241 67.256C87.6401 70.16 85.7801 71.612 84.2441 71.612ZM89.8857 71.432C89.0457 71.432 88.6257 70.94 88.6257 69.956C88.6257 68.588 89.2257 66.98 90.4257 65.132C90.4017 65.012 90.3777 64.88 90.3537 64.736C90.3537 64.592 90.3537 64.46 90.3537 64.34C90.3537 63.476 90.6417 62.636 91.2177 61.82C91.7937 61.004 92.5017 60.596 93.3417 60.596C94.0617 60.596 94.5417 60.848 94.7817 61.352C95.0457 61.856 95.1777 62.42 95.1777 63.044C95.1777 63.572 95.1177 64.076 94.9977 64.556C94.8777 65.06 94.6977 65.624 94.4577 66.248C94.2177 66.872 93.9177 67.532 93.5577 68.228C93.9177 68.444 94.3257 68.552 94.7817 68.552C95.1897 68.552 95.5737 68.504 95.9337 68.408C96.2937 68.288 96.6297 68.072 96.9417 67.76C97.2537 67.448 97.4937 67.172 97.6617 66.932C97.8537 66.692 97.9377 66.584 97.9137 66.608C97.9617 66.56 98.0097 66.536 98.0577 66.536C98.1537 66.536 98.2257 66.596 98.2737 66.716C98.3457 66.836 98.3337 66.956 98.2377 67.076C97.8537 67.628 97.3497 68.12 96.7257 68.552C96.1257 68.96 95.4657 69.164 94.7457 69.164C94.1937 69.164 93.7137 69.044 93.3057 68.804C92.2017 70.556 91.0617 71.432 89.8857 71.432ZM93.0897 67.904C93.4017 67.136 93.6417 66.476 93.8097 65.924C93.9777 65.372 94.0617 64.856 94.0617 64.376V64.088C94.0617 63.44 93.9537 62.84 93.7377 62.288C93.5217 61.712 93.2097 61.424 92.8017 61.424C92.2497 61.424 91.8177 61.76 91.5057 62.432C91.2897 62.888 91.1817 63.392 91.1817 63.944V64.16C91.5657 63.704 91.9497 63.476 92.3337 63.476C92.6937 63.476 92.9577 63.596 93.1257 63.836C93.1977 63.932 93.2337 64.016 93.2337 64.088C93.2337 64.232 93.0897 64.304 92.8017 64.304C92.3697 64.304 91.9137 64.76 91.4337 65.672C91.7697 66.608 92.3217 67.352 93.0897 67.904ZM90.4617 70.568C90.7737 70.568 91.2177 70.28 91.7937 69.704C92.0337 69.464 92.2377 69.236 92.4057 69.02C92.5737 68.804 92.7057 68.6 92.8017 68.408C91.9857 67.856 91.3857 67.244 91.0017 66.572C90.2817 68.084 89.9217 69.176 89.9217 69.848C89.9217 70.328 90.1017 70.568 90.4617 70.568Z" fill="black"/>
</svg>
